#!OML:ASF G:\JayActor3\Patient Classification 1\Patient 1\Session 2\male.ASF
:FULLY-SPECIFIED
:DEGREES
4262
root 21.9711 16.5322 -3.72743 -545.939 74.1272 -185.95
lowerback 7.96499 0.823534 2.1432
upperback 2.30506 1.35596 0.673223
thorax -2.04836 0.703592 -0.640223
lowerneck -14.4743 -6.1005 -3.80657
upperneck 19.8562 -8.82246 6.83305
head 9.10571 -3.59331 1.88606
rclavicle 4.03533e-014 6.36111e-015
rhumerus -50.0094 18.6757 -82.5876
rradius 48.4343
rwrist -5.05195
rhand -26.5107 8.97894
rfingers 7.12502
rthumb 0.0525116 -21.0008
lclavicle 4.03533e-014 6.36111e-015
lhumerus -32.9868 -42.564 87.6689
lradius 75.7504
lwrist 18.8756
lhand -16.6036 16.8198
lfingers 7.12502
lthumb 9.61784 46.5803
rfemur -37.6075 -5.03742 13.9675
rtibia 53.2247
rfoot -16.5401 -8.90196
rtoes 2.15333
lfemur 4.45881 6.10848 -21.0873
ltibia 20.3055
lfoot -18.3328 -3.13527
ltoes -8.67955
4263
root 22.1174 16.5254 -3.72243 -545.737 73.9376 -185.95
lowerback 7.87525 0.724409 2.01834
upperback 2.31225 1.2141 0.751653
thorax -1.99928 0.633696 -0.474399
lowerneck -14.5091 -6.06288 -3.78414
upperneck 19.9196 -8.76771 6.78762
head 9.12732 -3.56821 1.87331
rclavicle -2.99171e-014 7.95139e-016
rhumerus -50.3451 18.5988 -82.4586
rradius 48.1584
rwrist -4.8856
rhand -26.5758 9.0268
rfingers 7.12502
rthumb -0.0103538 -20.9529
lclavicle -2.99171e-014 7.95139e-016
lhumerus -32.3388 -43.1048 88.0136
lradius 77.1409
lwrist 19.0632
lhand -16.3104 16.8136
lfingers 7.12502
lthumb 9.90073 46.5608
rfemur -37.6393 -4.4256 13.5945
rtibia 50.3048
rfoot -16.8335 -8.70554
rtoes 1.5162
lfemur 5.19203 5.8375 -20.9577
ltibia 19.5121
lfoot -18.275 -2.94748
ltoes -8.90332
4264
root 22.2646 16.5172 -3.71624 -545.545 73.7351 -185.98
lowerback 7.77369 0.622137 1.88811
upperback 2.32378 1.06757 0.831289
thorax -1.93834 0.56154 -0.304032
lowerneck -14.578 -6.03064 -3.74914
upperneck 19.9683 -8.71963 6.72668
head 9.14927 -3.54705 1.8514
rclavicle -3.01159e-014 3.18055e-015
rhumerus -50.6569 18.5067 -82.324
rradius 47.9169
rwrist -4.76242
rhand -26.6303 9.06312
rfingers 7.12502
rthumb -0.0630394 -20.9166
lclavicle -3.01159e-014 3.18055e-015
lhumerus -31.7169 -43.6403 88.3047
lradius 78.6438
lwrist 19.255
lhand -15.9577 16.7554
lfingers 7.12502
lthumb 10.2409 46.4861
rfemur -37.6602 -3.77276 13.1801
rtibia 47.4687
rfoot -17.2094 -8.44441
rtoes 0.692007
lfemur 5.90319 5.57732 -20.8262
ltibia 18.7193
lfoot -18.1928 -2.78201
ltoes -9.1447
4265
root 22.4125 16.5077 -3.70887 -545.37 73.5243 -186.04
lowerback 7.66481 0.518194 1.76013
upperback 2.33829 0.918904 0.906639
thorax -1.86906 0.488284 -0.139477
lowerneck -14.6628 -6.006 -3.70323
upperneck 19.9961 -8.68171 6.65498
head 9.16651 -3.53162 1.82223
rclavicle -9.14409e-015 -4.77083e-015
rhumerus -50.9455 18.3942 -82.1919
rradius 47.7005
rwrist -4.67269
rhand -26.6608 9.08451
rfingers 7.12502
rthumb -0.0924476 -20.8952
lclavicle -9.14409e-015 -4.77083e-015
lhumerus -31.1272 -44.1721 88.5416
lradius 80.2606
lwrist 19.4988
lhand -15.5895 16.6668
lfingers 7.12502
lthumb 10.5961 46.3797
rfemur -37.6752 -3.06827 12.7205
rtibia 44.7692
rfoot -17.7274 -8.24482
rtoes -0.157011
lfemur 6.59688 5.32591 -20.6937
ltibia 17.9286
lfoot -18.0839 -2.62961
ltoes -9.45736
4266
root 22.5612 16.4972 -3.70036 -545.219 73.3106 -186.133
lowerback 7.55533 0.41315 1.63864
upperback 2.35547 0.769261 0.973553
thorax -1.79542 0.414453 0.012363
lowerneck -14.7174 -5.98027 -3.65777
upperneck 19.9722 -8.64263 6.5942
head 9.16087 -3.51704 1.79776
rclavicle -8.24956e-015 2.8625e-014
rhumerus -51.2122 18.2551 -82.0679
rradius 47.5054
rwrist -4.60506
rhand -26.6425 9.09069
rfingers 7.12502
rthumb -0.0747968 -20.889
lclavicle -8.24956e-015 2.8625e-014
lhumerus -30.5702 -44.701 88.7237
lradius 81.9792
lwrist 19.828
lhand -15.2455 16.5486
lfingers 7.12502
lthumb 10.928 46.2443
rfemur -37.6861 -2.30182 12.2111
rtibia 42.2564
rfoot -18.4034 -8.21704
rtoes -0.779881
lfemur 7.28622 5.08124 -20.5621
ltibia 17.1342
lfoot -17.9477 -2.47904
ltoes -9.87227
4267
root 22.7109 16.4862 -3.69066 -545.102 73.1005 -186.261
lowerback 7.44959 0.308745 1.5254
upperback 2.37657 0.621178 1.03084
thorax -1.71857 0.341329 0.149014
lowerneck -14.762 -5.95658 -3.60804
upperneck 19.9203 -8.60626 6.53258
head 9.14367 -3.50476 1.77219
rclavicle 5.51627e-014 -5.56597e-015
rhumerus -51.4585 18.0984 -81.9611
rradius 47.3228
rwrist -4.5527
rhand -26.6063 9.09285
rfingers 7.12502
rthumb -0.039831 -20.8869
lclavicle 5.51627e-014 -5.56597e-015
lhumerus -30.051 -45.231 88.858
lradius 83.7939
lwrist 20.2663
lhand -14.9664 16.4252
lfingers 7.12502
lthumb 11.1972 46.1064
rfemur -37.6955 -1.47955 11.6536
rtibia 39.9798
rfoot -19.2232 -8.43628
rtoes -1.00346
lfemur 7.98204 4.8437 -20.4326
ltibia 16.3316
lfoot -17.7842 -2.33137
ltoes -10.3799
4268
root 22.8615 16.4747 -3.67968 -545.05 72.8956 -186.453
lowerback 7.3534 0.20714 1.41256
upperback 2.40145 0.477002 1.07596
thorax -1.64209 0.270057 0.272045
lowerneck -14.7747 -5.93122 -3.56047
upperneck 19.8301 -8.56707 6.4775
head 9.10768 -3.49262 1.75041
rclavicle 8.05078e-015 -4.77083e-015
rhumerus -51.6868 17.9237 -81.8728
rradius 47.1469
rwrist -4.49832
rhand -26.5488 9.09994
rfingers 7.12502
rthumb 0.015674 -20.8798
lclavicle 8.05078e-015 -4.77083e-015
lhumerus -29.5633 -45.7581 88.9467
lradius 85.6817
lwrist 20.7664
lhand -14.6289 16.3616
lfingers 7.12502
lthumb 11.5226 46.0249
rfemur -37.7107 -0.620539 11.0513
rtibia 37.9789
rfoot -20.1483 -8.95083
rtoes -0.764256
lfemur 8.69019 4.60801 -20.3165
ltibia 15.5202
lfoot -17.5912 -2.18195
ltoes -10.9706
4269
root 23.0131 16.4626 -3.66737 -545.072 72.6998 -186.71
lowerback 7.27496 0.109216 1.29938
upperback 2.4288 0.338038 1.10837
thorax -1.572 0.201264 0.38122
lowerneck -14.7723 -5.90469 -3.51395
upperneck 19.7252 -8.52599 6.42475
head 9.06404 -3.48021 1.73026
rclavicle -2.18663e-015 -1.90833e-014
rhumerus -51.9009 17.7268 -81.805
rradius 46.9761
rwrist -4.43423
rhand -26.4787 9.11928
rfingers 7.12502
rthumb 0.0833551 -20.8605
lclavicle -2.18663e-015 -1.90833e-014
lhumerus -29.1103 -46.2777 88.9965
lradius 87.624
lwrist 21.2935
lhand -14.1177 16.5304
lfingers 7.12502
lthumb 12.0156 46.1655
rfemur -37.7352 0.24958 10.425
rtibia 36.2821
rfoot -21.1364 -9.74042
rtoes -0.052236
lfemur 9.40738 4.3751 -20.2129
ltibia 14.7153
lfoot -17.3706 -2.04643
ltoes -11.5795
4270
root 23.1653 16.449 -3.65351 -545.197 72.505 -187.057
lowerback 7.22767 0.015327 1.17752
upperback 2.45829 0.204444 1.12642
thorax -1.51624 0.135038 0.479634
lowerneck -14.7715 -5.87882 -3.45907
upperneck 19.6221 -8.48594 6.36281
head 9.0206 -3.46851 1.7055
rclavicle 2.28602e-014 -7.95139e-015
rhumerus -52.1068 17.5075 -81.7576
rradius 46.8133
rwrist -4.36095
rhand -26.4118 9.15139
rfingers 7.12502
rthumb 0.148021 -20.8283
lclavicle 2.28602e-014 -7.95139e-015
lhumerus -28.6876 -46.7874 89.0151
lradius 89.5956
lwrist 21.7866
lhand -13.3868 16.8544
lfingers 7.12502
lthumb 12.7204 46.4469
rfemur -37.7676 1.09055 9.79304
rtibia 34.9029
rfoot -22.1464 -10.7763
rtoes 0.94403
lfemur 10.1231 4.14034 -20.1303
ltibia 13.945
lfoot -17.1338 -1.92073
ltoes -12.2142
4271
root 23.3184 16.4336 -3.63782 -545.383 72.3111 -187.439
lowerback 7.22309 -0.0751798 1.05703
upperback 2.4914 0.0765444 1.13611
thorax -1.47976 0.0716719 0.567963
lowerneck -14.7754 -5.85414 -3.40302
upperneck 19.5287 -8.4481 6.30031
head 8.98154 -3.4573 1.67999
rclavicle -1.21259e-014 3.49861e-014
rhumerus -52.3098 17.2648 -81.7303
rradius 46.6624
rwrist -4.27707
rhand -26.3533 9.18509
rfingers 7.12502
rthumb 0.204477 -20.7946
lclavicle -1.21259e-014 3.49861e-014
lhumerus -28.2974 -47.2751 89.0093
lradius 91.573
lwrist 22.1762
lhand -12.4185 17.2384
lfingers 7.12502
lthumb 13.6537 46.7706
rfemur -37.7925 1.8622 9.20956
rtibia 33.8382
rfoot -23.1339 -11.9431
rtoes 2.15907
lfemur 10.8214 3.90659 -20.0456
ltibia 13.2571
lfoot -16.8966 -1.81871
ltoes -12.8899
4272
root 23.4722 16.4155 -3.62101 -545.646 72.1164 -187.879
lowerback 7.25193 -0.161647 0.936764
upperback 2.53147 -0.0451799 1.13702
thorax -1.4541 0.0114914 0.646603
lowerneck -14.7904 -5.83102 -3.35278
upperneck 19.4418 -8.41253 6.24327
head 8.9475 -3.44653 1.65673
rclavicle 4.11484e-014 -2.46493e-014
rhumerus -52.5074 17.0037 -81.7182
rradius 46.5297
rwrist -4.19804
rhand -26.2905 9.2027
rfingers 7.12502
rthumb 0.265177 -20.7769
lclavicle 4.11484e-014 -2.46493e-014
lhumerus -27.929 -47.7382 88.9851
lradius 93.5326
lwrist 22.4422
lhand -11.296 17.5608
lfingers 7.12502
lthumb 14.7354 47.017
rfemur -37.8128 2.48616 8.70922
rtibia 33.0731
rfoot -24.0115 -13.0903
rtoes 3.42651
lfemur 11.4678 3.67974 -19.9678
ltibia 12.7072
lfoot -16.6852 -1.7485
ltoes -13.6417
